<svg xmlns="http://www.w3.org/2000/svg" width="96" height="96" viewBox="0 0 96 96"><path d="M20 46 C12 34 18 18 32 18 C43 18 50 28 48 42 L44 66 C42 77 28 78 23 68 Z" fill="#ff62d2" stroke="#170022" stroke-width="5"/><path d="M76 46 C84 34 78 18 64 18 C53 18 46 28 48 42 L52 66 C54 77 68 78 73 68 Z" fill="#64f5ff" stroke="#170022" stroke-width="5"/><rect x="24" y="66" width="18" height="16" rx="4" fill="#6f28ff" stroke="#170022" stroke-width="5"/><rect x="54" y="66" width="18" height="16" rx="4" fill="#6f28ff" stroke="#170022" stroke-width="5"/><path d="M41 80 C48 86 54 86 61 80" fill="none" stroke="#170022" stroke-width="5"/></svg>